<svg xmlns="http://www.w3.org/2000/svg" width="927.753" height="242" viewBox="0 0 927.753 242">
  <g id="Group_5" data-name="Group 5" transform="translate(-706.123 -760)">
    <g id="Group_4" data-name="Group 4">
      <rect id="Rectangle_3" data-name="Rectangle 3" width="242" height="242" rx="60" transform="translate(706.123 760)" fill="#652cd1"/>
      <g id="Group_3" data-name="Group 3">
        <path id="Path_1" data-name="Path 1" d="M88.831,61.08a5.943,5.943,0,0,1-5.943-5.943,38.751,38.751,0,0,0-66.152-27.4,38.5,38.5,0,0,0-11.35,27.4A5.943,5.943,0,0,1-.557,61.08,5.943,5.943,0,0,1-6.5,55.137,50.637,50.637,0,0,1,44.137,4.5,50.637,50.637,0,0,1,94.774,55.137,5.943,5.943,0,0,1,88.831,61.08Z" transform="translate(771.813 876.131)" fill="#fff"/>
        <path id="Ellipse_1" data-name="Ellipse 1" d="M25.41-8.5A33.91,33.91,0,1,1-8.5,25.41,33.949,33.949,0,0,1,25.41-8.5Zm0,55.934A22.024,22.024,0,1,0,3.386,25.41,22.049,22.049,0,0,0,25.41,47.434Z" transform="translate(790.526 833.203)" fill="#fff"/>
        <path id="Path_2" data-name="Path 2" d="M39.854,98.15a5.943,5.943,0,0,1-5.943-5.943c0-17.151-10.352-32.726-19.97-39.94a5.943,5.943,0,0,1,0-9.508,21.991,21.991,0,0,0-1.979-36.5A5.943,5.943,0,1,1,18.024-3.969a33.815,33.815,0,0,1,16.546,27.3,33.81,33.81,0,0,1-8.2,24C36.7,57.484,45.8,73.938,45.8,92.207A5.943,5.943,0,0,1,39.854,98.15Z" transform="translate(843.137 833.474)" fill="#fff"/>
      </g>
    </g>
    <path id="Path_4" data-name="Path 4" d="M70.529,2.2q-18.778,0-33.216-8.51A60.739,60.739,0,0,1,14.64-29.737Q6.4-44.652,6.405-64.05t8.2-34.313a60.563,60.563,0,0,1,22.6-23.424q14.4-8.51,33.1-8.51a63.6,63.6,0,0,1,24.483,4.648,61.89,61.89,0,0,1,19.8,12.956,57.761,57.761,0,0,1,13.1,19.216l-23.2,8.564a39.07,39.07,0,0,0-8.235-11.841A37.33,37.33,0,0,0,84.49-104.6a36.161,36.161,0,0,0-14.181-2.782,36.032,36.032,0,0,0-19.838,5.546,38.122,38.122,0,0,0-13.6,15.282A49.239,49.239,0,0,0,31.951-64.05a49.258,49.258,0,0,0,4.978,22.565A38.059,38.059,0,0,0,50.71-26.113a36.995,36.995,0,0,0,20.149,5.546A34.024,34.024,0,0,0,85.224-23.55a36.549,36.549,0,0,0,11.493-8.308A45.225,45.225,0,0,0,104.9-44.174l23.2,8.564A59.952,59.952,0,0,1,115.07-15.9,60.357,60.357,0,0,1,95.159-2.562,63.389,63.389,0,0,1,70.529,2.2ZM198.372,0l-.732-18.483V-46.3A49.946,49.946,0,0,0,195.9-60.39a18.444,18.444,0,0,0-5.49-9.058q-3.751-3.2-10.156-3.2a22.025,22.025,0,0,0-10.614,2.562,21.564,21.564,0,0,0-8.052,7.869l-21.228-7.32a43.923,43.923,0,0,1,7.5-11.437,37.275,37.275,0,0,1,12.9-9.15q7.96-3.569,19.49-3.569,13.908,0,23.15,5.307a32.831,32.831,0,0,1,13.725,14.915q4.483,9.607,4.3,22.783L220.881,0Zm-25.62,2.2q-16.47,0-25.529-7.32T138.165-25.8q0-14.64,9.79-22.051T175.5-55.266h23.241v17.934H183.915q-11.9,0-16.47,2.837a8.891,8.891,0,0,0-4.575,7.96,7.1,7.1,0,0,0,3.66,6.313q3.66,2.287,10.248,2.288a20.2,20.2,0,0,0,10.706-2.837,21.826,21.826,0,0,0,7.411-7.32,17.477,17.477,0,0,0,2.745-9.241H203.5q0,18.666-7.046,29.1T172.752,2.2ZM240.644,0V-91.5h22.763L264.8-74.664V0Zm60.647,0V-46.848h24.153V0Zm0-46.848q0-9.262-2.142-14.44a14.672,14.672,0,0,0-5.966-7.411,18.287,18.287,0,0,0-8.986-2.342q-9.37-.22-14.384,5.709T264.8-48.02h-8.089q0-14.528,4.319-24.741t12.078-15.574A31.138,31.138,0,0,1,291.261-93.7q10.943,0,18.593,4.411a27.99,27.99,0,0,1,11.658,13.633q4.007,9.223,3.933,23.826v4.978ZM409.775,0l-1.21-17.019V-128.1h24.156V0Zm-28.7,2.2q-12.627,0-21.9-5.856a38.535,38.535,0,0,1-14.366-16.69q-5.088-10.834-5.088-25.4,0-14.749,5.088-25.491a38.631,38.631,0,0,1,14.366-16.6q9.277-5.856,21.9-5.856,11.492,0,19.49,5.856t12.152,16.6q4.155,10.743,4.155,25.491,0,14.566-4.155,25.4T400.568-3.66Q392.57,2.2,381.078,2.2Zm6.148-22.177a19.224,19.224,0,0,0,11.109-3.313,22.322,22.322,0,0,0,7.6-9.114,30.839,30.839,0,0,0,2.746-13.342,30.839,30.839,0,0,0-2.746-13.342,21.916,21.916,0,0,0-7.6-9.058,19.773,19.773,0,0,0-11.292-3.257,20.563,20.563,0,0,0-11.456,3.257,22.226,22.226,0,0,0-7.869,9.058,30.874,30.874,0,0,0-2.964,13.342,30.53,30.53,0,0,0,3,13.342,22.751,22.751,0,0,0,7.96,9.114A20.57,20.57,0,0,0,387.226-19.981ZM545.852,0,496.807-128.1h25.031L572.349,0Zm-101.2,0,50.508-128.1h25.031L471.147,0Zm23.79-28.185v-22.14h80.225v22.14ZM587.757,0V-128.1h25V0Z" transform="translate(1021.123 945)"/>
  </g>
</svg>
